<?xml version="1.0" encoding="UTF-8"?>
<!DOCTYPE svg PUBLIC "-//W3C//DTD SVG 1.1//EN" "http://www.w3.org/Graphics/SVG/1.1/DTD/svg11.dtd">
<svg xmlns="http://www.w3.org/2000/svg" version="1.1" width="500px" height="500px" style="shape-rendering:geometricPrecision; text-rendering:geometricPrecision; image-rendering:optimizeQuality; fill-rule:evenodd; clip-rule:evenodd" xmlns:xlink="http://www.w3.org/1999/xlink">
<g><path style="opacity:0.988" fill="#66e4e3" d="M 248.5,26.5 C 263.109,39.2749 276.942,52.9416 290,67.5C 314.926,103.6 329.593,143.6 334,187.5C 337.293,211.86 337.126,236.193 333.5,260.5C 344.424,272.927 355.924,284.927 368,296.5C 379.331,312.104 382.998,329.437 379,348.5C 374.474,367.579 368.64,386.246 361.5,404.5C 343.347,386.847 325.347,369.014 307.5,351C 268.833,350.333 230.167,350.333 191.5,351C 174.01,369.456 156.177,387.623 138,405.5C 130.807,387.254 124.807,368.587 120,349.5C 115.841,330.096 119.508,312.43 131,296.5C 142.876,284.959 154.376,273.125 165.5,261C 157.183,199.065 167.683,140.565 197,85.5C 201,79.5 205,73.5 209,67.5C 222.006,53.6609 235.173,39.9942 248.5,26.5 Z M 246.5,151.5 C 267.796,152.962 277.296,164.295 275,185.5C 267.121,203.798 253.955,208.964 235.5,201C 222.895,191.228 220.062,179.061 227,164.5C 231.815,157.518 238.315,153.184 246.5,151.5 Z"/></g>
<g><path style="opacity:0.962" fill="#66e4e3" d="M 220.5,396.5 C 239.833,396.5 259.167,396.5 278.5,396.5C 281.052,420.624 275.886,442.957 263,463.5C 258.667,470.167 254.333,476.833 250,483.5C 235.781,465.393 226.114,445.059 221,422.5C 220.5,413.84 220.334,405.173 220.5,396.5 Z"/></g>
</svg>
